# xmcd
#
# Track frame offsets: 
#        150
#        21287
#        42082
#
# Disc length: 783 seconds
#
# Revision: 3
# Processed by: cddbd v1.5.2PL0 Copyright (c) Steve Scherf et al.
# Submitted via: ExactAudioCopy v1.3
#
DISCID=1b030d03
DTITLE=The Chieftains with Van Morrison - Have I told you lately that 
DTITLE=I love you
DYEAR=1995
DGENRE=Blues
TTITLE0=Have I told you lately that I love you
TTITLE1=The Chieftains with Marianne Faithfull - Love is teasin’
TTITLE2=The Chieftains - Ferny hill (instrumental)
EXTD=
EXTT0=
EXTT1=
EXTT2=
PLAYORDER=
